<svg width="32" height="32" fill="none" xmlns="http://www.w3.org/2000/svg"><path fill-rule="evenodd" clip-rule="evenodd" d="M17.143 0h-2.286v10.12L11.066.738l-2.12.856 3.89 9.627-7.342-7.342-1.616 1.616 7.037 7.037-9.12-3.984-.914 2.094 9.649 4.216H0v2.286h10.53L.88 21.359l.916 2.094 9.119-3.984-7.037 7.037 1.616 1.616 7.342-7.342-3.89 9.627 2.12.856 3.791-9.384V32h2.286V21.88l3.791 9.383 2.12-.856-3.89-9.627 7.342 7.342 1.616-1.616-7.037-7.037 9.12 3.984.914-2.094-9.649-4.216H32v-2.286H21.47l9.65-4.216-.916-2.094-9.119 3.984 7.037-7.037-1.616-1.616-7.342 7.342 3.89-9.627-2.12-.856-3.791 9.383V0Z" fill="#E94D35"/></svg>